<svg width="425" height="425" viewBox="0 0 425 425" fill="none" xmlns="http://www.w3.org/2000/svg">
<rect x="13" y="13" width="399" height="399" rx="37" stroke="white" stroke-width="26"/>
<path d="M217.211 282.8C207.131 282.8 198.011 281.18 189.851 277.94C181.811 274.7 174.851 270.14 168.971 264.26C163.091 258.38 158.591 251.48 155.471 243.56C152.351 235.64 150.791 227 150.791 217.64C150.791 208.28 152.471 199.64 155.831 191.72C159.191 183.8 163.871 176.9 169.871 171.02C175.991 165.14 183.191 160.58 191.471 157.34C199.871 154.1 209.051 152.48 219.011 152.48C225.851 152.48 232.331 153.38 238.451 155.18C244.691 156.98 250.331 159.44 255.371 162.56C260.531 165.68 264.791 169.22 268.151 173.18L249.251 192.98C244.931 188.9 240.251 185.72 235.211 183.44C230.291 181.04 224.711 179.84 218.471 179.84C213.311 179.84 208.511 180.8 204.071 182.72C199.751 184.52 195.911 187.16 192.551 190.64C189.311 194 186.791 198.02 184.991 202.7C183.191 207.26 182.291 212.24 182.291 217.64C182.291 223.04 183.251 228.02 185.171 232.58C187.091 237.14 189.731 241.16 193.091 244.64C196.571 248 200.591 250.64 205.151 252.56C209.711 254.48 214.631 255.44 219.911 255.44C223.631 255.44 227.051 254.9 230.171 253.82C233.411 252.62 236.231 251.06 238.631 249.14C241.151 247.1 243.071 244.76 244.391 242.12C245.831 239.36 246.551 236.42 246.551 233.3V228.62L250.511 234.74H216.131V210.44H275.351C275.591 211.76 275.771 213.56 275.891 215.84C276.011 218.12 276.071 220.34 276.071 222.5C276.191 224.54 276.251 226.16 276.251 227.36C276.251 235.52 274.751 243.02 271.751 249.86C268.871 256.58 264.731 262.4 259.331 267.32C254.051 272.24 247.811 276.08 240.611 278.84C233.411 281.48 225.611 282.8 217.211 282.8Z" fill="white"/>
</svg>
